<svg width="213" height="40" viewBox="0 0 213 40" fill="none" xmlns="http://www.w3.org/2000/svg">
<path fill-rule="evenodd" clip-rule="evenodd" d="M12.0111 20.1136V15.7769L0.0228271 20.2328H0.00012207V24.6829H0.0228271L12.0111 29.1388V24.7965L5.86369 22.4465L12.0111 20.1079V20.1136Z" fill="#F7DD43"/>
<path fill-rule="evenodd" clip-rule="evenodd" d="M81.4487 28.923V24.5864L87.5904 22.2534L81.4487 19.9205V15.5838L93.4199 20.0397H93.4483V24.4955H93.4199L81.4487 28.9287V28.923ZM76.306 9.4478L69.2675 32.0449H73.4452L80.4837 9.4478H76.306Z" fill="#F7DD43"/>
<path fill-rule="evenodd" clip-rule="evenodd" d="M29.6247 15.1808C30.8167 16.4863 31.4411 18.2119 31.3673 19.9772V29.6041H27.1895V20.8627C27.2406 19.8864 26.9284 18.9328 26.3154 18.1722C25.7364 17.4967 24.8793 17.1221 23.9881 17.1618C21.3714 17.1618 20.0602 18.9782 20.0602 22.6053V29.6041H15.8824V13.8015H20.0602V15.2262C21.3884 13.9377 23.1878 13.2509 25.0382 13.3303C26.7638 13.2565 28.4326 13.932 29.6247 15.1808Z" fill="#F7DD43"/>
<path fill-rule="evenodd" clip-rule="evenodd" d="M36.6916 7.00704V29.6042H40.8693V7.00704H36.6916Z" fill="#F7DD43"/>
<path fill-rule="evenodd" clip-rule="evenodd" d="M64.4935 29.6042H61.0083L57.5912 20.2951L54.14 29.6042H50.6548L44.7969 13.7731H49.2641L52.5564 23.2411L55.9508 13.7731H59.2146L62.609 23.2695L65.9012 13.7731H70.3684L64.5049 29.6042H64.4935Z" fill="#F7DD43"/>
<path d="M116.135 39.9956C111.855 39.9956 107.357 39.1844 103.832 37.2309V2.76449C107.302 0.866203 111.799 -0.000129187 116.135 -0.000129187C120.471 -0.000129187 124.862 0.810996 128.328 2.76449V15.9888H119.601V6.98999C118.573 6.55682 117.324 6.39544 116.08 6.39544C114.836 6.39544 113.693 6.55682 112.61 6.98999V33.0054C113.638 33.4386 114.831 33.6 116.08 33.6C117.329 33.6 118.518 33.4386 119.601 33.0054V24.0109H128.328V37.2352C124.913 39.1335 120.416 39.9446 116.135 39.9998V39.9956Z" fill="#F7DD43"/>
<path d="M144.695 39.9955C140.087 39.9955 135.645 39.0187 132.12 37.0143V2.9258C135.59 0.976555 140.036 -0.000192642 144.695 -0.000192642C149.353 -0.000192642 153.689 0.921347 157.159 2.9258V37.0143C153.744 39.0187 149.247 39.9403 144.695 39.9955ZM148.436 7.10034C147.408 6.66717 146.16 6.45059 144.644 6.45059C143.128 6.45059 141.934 6.66717 140.902 7.10034V32.844C141.93 33.3324 143.179 33.549 144.644 33.549C146.109 33.549 147.353 33.3324 148.436 32.844V7.10034Z" fill="#F7DD43"/>
<path d="M172.387 25.3613H170.056V39.5071H161.223V0.488206H172.387C177.7 0.488206 181.709 1.57112 184.852 3.79216V22.0573C181.764 24.2274 177.696 25.3613 172.387 25.3613ZM176.074 7.20653C175.262 6.61199 174.175 6.3402 172.332 6.3402H169.946V19.5093H172.332C174.12 19.5093 175.203 19.2375 176.074 18.6982V7.20653Z" fill="#F7DD43"/>
<path d="M203.329 39.5071V25.3613H196.827V39.5071H188.049V2.8706C191.247 0.972308 195.744 -0.000192642 200.08 -0.000192642C204.416 -0.000192642 208.858 0.976555 212.056 2.8706V39.5071H203.329ZM203.329 6.77334C202.408 6.34017 201.269 6.12359 200.076 6.12359C198.883 6.12359 197.745 6.34017 196.823 6.77334V19.1823H203.325V6.77334H203.329Z" fill="#F7DD43"/>
</svg>
